<svg xmlns="http://www.w3.org/2000/svg" xmlns:xlink="http://www.w3.org/1999/xlink" width="986.587" height="957.391" xmlns:v="https://vecta.io/nano"><style><![CDATA[.B{fill:#c9cccc}.C{fill:#4e5b5f}.D{fill:#fff}.E{opacity:.3}.F{fill:#fece47}.G{fill:#0a1f2d}.H{fill:#889da4}.I{fill:#f7a63c}.J{fill:#a3d9ef}.K{fill:#6fcaf0}.L{fill:#e7eced}.M{fill-rule:evenodd}]]></style><defs><linearGradient id="A" x1="1" y1=".5" x2="0" y2=".5"><stop offset="0" stop-color="#fff" stop-opacity=".8"/><stop offset="1" stop-color="#f3f1f0" stop-opacity=".4"/></linearGradient><linearGradient id="B" xlink:href="#A"/><path id="C" d="M881.936 874.478c-2.563 0-4.874 1.544-5.855 3.912s-.44 5.094 1.374 6.906 4.538 2.355 6.906 1.374 3.912-3.292 3.912-5.855a6.33 6.33 0 0 0-6.337-6.337m0-3.61c5.475 0 9.913 4.438 9.913 9.913s-4.438 9.913-9.913 9.913-9.913-4.438-9.913-9.913a9.9 9.9 0 0 1 9.913-9.913z"/><path id="D" d="M717.212 547.752h11.506v11.506h-11.506z"/><path id="E" d="M681.385 577.526c0-9.063-5.2-16.427-14.267-16.427s-14.267 7.36-14.267 16.427z"/><path id="F" d="M661.418 553.63a6.09 6.09 0 0 0 6.089 6.089 6.09 6.09 0 0 0 6.089-6.089 6.09 6.09 0 0 0-6.089-6.089 6.09 6.09 0 0 0-6.089 6.089z"/><path id="G" d="M681.385 626.203c0-9.063-5.2-16.427-14.267-16.427s-14.267 7.364-14.267 16.427z"/><path id="H" d="M483.982 560.7h29.702v2.62h-29.702z"/></defs><path d="M354.4 310.3v268.667H.283V310.3zM3.823 575.437H350.87V313.85H3.823zm10.833-250.754h325.38v239.92H14.656zm3.54 3.54v10.02h318.3v-10.02h-318.3zm318.3 159.558v-8.92h-318.3v8.92zm0-12.462v-8.92h-318.3v8.925zm0-12.462v-8.92h-318.3v8.92zm0-12.462v-8.92h-318.3v8.92zm0-12.462v-8.92h-318.3v8.92zm0-12.462v-8.92h-318.3v8.92zm0-12.462v-8.92h-318.3v8.92zm0-12.462v-8.92h-318.3v8.92zm0-12.462v-8.918h-318.3v8.92zm0-12.462v-8.918h-318.3v8.918zm0-12.462v-8.917h-318.3v8.92zm0-12.462v-8.917h-318.3v8.92zm0 210.36v-69.736h-12.5v22.693h-3.54v-22.693H18.196v69.74z" class="B E"/><g class="B E"><path d="M858.325 733.507v169.9h43.69v-169.9h-43.69m-3.61-3.61h50.908v177.08H854.75v-177.08z"/><use xlink:href="#C"/><path d="M865.192 765.58v89h29.456v-89h-29.456m-3.6-3.61h36.64v96.188h-36.64V761.97z"/></g><g class="B E"><path d="M801.08 733.507v169.9h43.686v-169.9H801.08m-3.61-3.61h50.908v177.08h-50.873v-177.08z"/><use xlink:href="#C" x="-57.242"/><path d="M807.948 765.58v89h29.455v-89h-29.455m-3.61-3.61h36.64v96.188h-36.64V761.97z"/></g><g class="B E"><path d="M743.056 733.507v169.9h43.686v-169.9h-43.686m-3.576-3.61h50.873v177.08H739.48v-177.08z"/><use xlink:href="#C" x="-115.231"/><path d="M749.924 765.58v89h29.454v-89h-29.454m-3.576-3.61h36.64v96.188h-36.64V761.97z"/></g><g class="B E"><path d="M685.032 733.507v169.9h43.686v-169.9h-43.686m-3.576-3.61h50.873v177.08h-50.873v-177.08z"/><use xlink:href="#C" x="-173.256"/><path d="M691.9 765.58v89h29.454v-89H691.9m-3.576-3.61h36.64v96.188h-36.64V761.97z"/></g><path d="M481.576 694.282a39.69 39.69 0 0 1 15.329-3.363h.425c5.285.072 10.5 1.216 15.33 3.363 14.338 6.408 14.338 16.214 14.338 16.214h-59.724c-.035 0-.035-9.84 14.303-16.214z" class="C"/><g class="B"><path d="M599.854 931.936h386.733V498.862H599.854v433.074zm383.193-3.54H603.394V502.402h379.653zm-365.492-14.16h351.33v-198.57h-351.33zm347.8-3.54h-344.25V719.202h344.25zm-347.8-209.193h351.33v-184.94h-351.33zm347.8-3.54h-344.25v-177.86h344.25zM0 931.932h386.73v-302.72H0zm383.193-3.54H3.54v-295.64h379.653zM17.7 914.232h351.33V715.664H17.7zm347.8-3.54H21.24V719.204H365.5v191.5zM17.7 701.503h351.33v-54.6H17.7zm347.8-3.54H21.24v-47.5H365.5v47.5z" class="E"/><g class="E"><path d="M873.017 539.928h17.736v14.87h32.393v138.635H851.74V531.82h21.277zm17.736 149.964h28.853V558.337h-28.853zm-17.736 0h14.2V543.468h-14.2zm-3.54-154.566H855.28v154.53h14.2v-154.53zm-169.08 19.47v-26.622h21.95v11.754h17.736v14.87h28.855v-14.87h21.277v9.913h21.6v143.626H669.136V554.835h31.26zm89.78 135.095h18.06V553.346h-18.06zm-17.7 0h14.2V543.435h-14.2v146.457zm-32.428 0H768.9V558.335h-28.854zm-17.7 0h14.2V543.47h-14.2zm-3.54 0V531.715h-14.872v23.082h.142v135.095zm-46.13 0h27.72V558.335h-27.723z"/><path d="M406.842 516.67h177.72V309.92h-177.72zm174.18-3.54h-170.64V313.46h170.64zm-145.15-25.5h119.66v-148.7h-119.66zm116.12-3.54h-112.58V342.5h112.58zm-137.114 24.497h161.575V317.992H414.878zm158.07-3.54H418.454V321.532H572.95z"/></g><path d="M505.755 661.924v13.736a9.16 9.16 0 0 0 9.134 9.134h228.733a9.16 9.16 0 0 0 9.134-9.134v-13.736zm118.92 10.69a4.57 4.57 0 0 1 4.567-4.567 4.57 4.57 0 0 1 4.567 4.567 4.57 4.57 0 0 1-4.567 4.567 4.58 4.58 0 0 1-4.567-4.567z"/></g><path d="M505.755 523.183v138.74h247v-138.74a9.16 9.16 0 0 0-9.134-9.134H514.89a9.02 9.02 0 0 0-9.134 9.134zm10.656 128.085V524.705H742.1v126.563z" class="G"/><path d="M516.446 524.705H742.1v126.563H516.446z" class="J"/><use xlink:href="#D" class="D"/><use xlink:href="#D" y="17.098" class="C"/><use xlink:href="#D" y="34.234" class="K"/><use xlink:href="#D" y="51.368" class="D"/><use xlink:href="#D" y="68.291" class="F"/><path d="M634.442 590.943h65.742v41.137h-65.742z" class="G"/><path d="M634.442 542.3h65.742v41.067h-65.742z" class="D"/><g class="H"><use xlink:href="#E"/><use xlink:href="#F"/></g><g class="D"><use xlink:href="#G"/><use xlink:href="#F" y="48.676"/></g><path d="M560.77 590.943h65.742v41.137H560.77z" class="C"/><path d="M560.77 542.3h65.742v41.067H560.77z" class="F"/><g class="D"><use xlink:href="#E" x="-73.672"/><use xlink:href="#F" x="-73.672"/><use xlink:href="#G" x="-73.672"/><use xlink:href="#F" x="-73.672" y="48.676"/></g><path d="M588.1 710.248h82.345c-7.93 0-11.753-19.33-11.753-25.42h-58.874c0 5.9-3.788 25.42-11.718 25.42z" class="C"/><circle cx="629.238" cy="672.616" r="4.567" fill="#777778"/><path d="M742.1 524.705H599.82L726.7 651.55h15.4z" opacity=".5" fill="url(#A)"/><path d="M529.545 524.705H516.41L632.778 651.55h15.4z" opacity=".5" fill="url(#B)"/><circle cx="629.238" cy="672.616" r="4.567" class="C"/><circle cx="629.556" cy="519.395" r="2.584" class="F"/><path d="M454.812 699V568.9a6 6 0 0 0-5.983-5.983H250.47a6 6 0 0 0-5.983 5.983V699z" class="C"/><path d="M446.846 703.77v-120.26a5.53 5.53 0 0 0-5.523-5.523H257.976a5.53 5.53 0 0 0-5.523 5.523v120.26z" class="K"/><path d="M323.682 698.247a6 6 0 0 0 5.877 4.673h40.18a6.04 6.04 0 0 0 5.877-4.673h100.29v6.02a6.04 6.04 0 0 1-6.018 6.018H229.408a6.04 6.04 0 0 1-6.018-6.018v-6.02z" class="B"/><path d="M350.623 572.64h-1.983c-.743 0-1.345-.602-1.345-1.345v-1.982c0-.743.602-1.345 1.345-1.345h1.983c.743 0 1.345.602 1.345 1.345v1.982c.006.36-.134.704-.387.958s-.6.393-.958.387z" class="D"/><path d="M754.95 836.492l-10.2 119.978H668.89l-10.196-120.438zm-72.043 18.586H730.7c2.034 0 3.682-1.648 3.682-3.682s-1.648-3.682-3.682-3.682h-47.793c-2.034 0-3.682 1.648-3.682 3.682s1.648 3.682 3.682 3.682z" class="J"/><path d="M706.026 847.68h-23.113c-2.034 0-3.682 1.648-3.682 3.682s1.648 3.682 3.682 3.682h23.118V956.47H668.89l-10.196-120.438 47.333.212z" class="K"/><path d="M483.345 870.974h26.34a11.85 11.85 0 0 0 11.824-11.824v-25.844a11.85 11.85 0 0 0-11.824-11.824h-26.34a11.85 11.85 0 0 0-11.824 11.824v25.844a11.85 11.85 0 0 0 11.824 11.824zm26.34-45.952a8.3 8.3 0 0 1 8.284 8.284v25.844a8.3 8.3 0 0 1-8.284 8.284h-26.34a8.3 8.3 0 0 1-8.284-8.284v-25.844a8.3 8.3 0 0 1 8.284-8.284zm-12.923 37.318c8.916 0 16.143-7.227 16.143-16.143s-7.227-16.143-16.143-16.143-16.143 7.227-16.143 16.143c.01 8.912 7.23 16.134 16.143 16.143zm0-28.747a12.6 12.6 0 1 1-12.6 12.6 12.61 12.61 0 0 1 12.6-12.603z" class="E B"/><path d="M125.005 956.8h-18.1l47.97-220.768h18.1zm729.4 0h18.1l-47.97-220.768h-18.1z" class="H"/><path d="M70.662 736.02h850.04a3.81 3.81 0 0 0 3.823-3.823v-18.4a3.81 3.81 0 0 0-3.823-3.823H70.662c-1.015-.004-2 .397-2.708 1.115s-1.12 1.693-1.115 2.708v18.41c-.005 1.015.397 1.99 1.115 2.71s1.693 1.12 2.708 1.115z" class="G"/><path d="M827.88 751.492h-18.1l-3.328-15.4h18.1zm-676.288 0h18.02l3.292-15.4h-18.1z" class="C"/><path d="M284.846 834.227h63.685l3.753.177 3.753-.177h64.184a3.04 3.04 0 0 0 .6-.106c-4.5 6.16-19.93 20.462-67.016 21.1v.035c-.53 0-1.027 0-1.558-.035-.53 0-1.027.035-1.558.035v-.035c-47.5-.6-62.8-15.187-67.122-21.24a4.07 4.07 0 0 0 1.279.247z" class="G"/><path d="M271.64 642.843a39.93 39.93 0 0 1 35.4-37.137 1.11 1.11 0 0 1 .071-.248h88.647a4.06 4.06 0 0 0 .071.248 39.93 39.93 0 0 1 35.4 37.137 16.74 16.74 0 0 1 .142 1.912v120.968c.006.64-.042 1.28-.142 1.912a39.93 39.93 0 0 1-35.4 37.137c-.014.085-.038.168-.07.248h-88.643s-.035-.106-.07-.248a39.93 39.93 0 0 1-35.4-37.137c-.084-.634-.13-1.272-.142-1.912v-120.97c.01-.64.057-1.277.138-1.91z" class="H"/><path d="M271.393 642.842c.766-11.947 6.86-22.917 16.6-29.88a39.63 39.63 0 0 0-7.505 20.781c-.084.634-.13 1.272-.142 1.912v120.97a11.59 11.59 0 0 0 .142 1.912 39.93 39.93 0 0 0 35.4 37.137c.014.085.038.168.07.248h88.652s.035-.106.07-.248a39.68 39.68 0 0 0 18.8-7.257 39.85 39.85 0 0 1-27.9 16.356c-.014.085-.038.168-.07.248h-88.65s-.035-.106-.07-.248a39.93 39.93 0 0 1-35.4-37.137 16.72 16.72 0 0 1-.142-1.912v-120.97c.038-.637.074-1.274.145-1.912z" class="C"/><path d="M284.845 834.227h135.382a2.93 2.93 0 0 0 2.938-2.938v-8.71a2.93 2.93 0 0 0-2.938-2.938H284.845a2.93 2.93 0 0 0-2.938 2.938v8.71c.01 1.62 1.32 2.93 2.938 2.938z" class="H"/><path d="M344.215 876.497h16.214v46.59h-16.214z" class="B"/><g class="G"><path d="M282.332 936.293a15.31 15.31 0 0 1 15.152-13.488h108.8a15.31 15.31 0 0 1 15.152 13.488c4.822 1.937 7.615 7 6.68 12.112a10.94 10.94 0 0 1-10.53 8.968c-5.194.108-9.75-3.456-10.893-8.525s1.438-10.243 6.175-12.377c-.76-3.042-3.485-5.182-6.62-5.2h-108.8c-3.14.007-5.87 2.152-6.62 5.2a10.93 10.93 0 1 1-15.435 9.948c.068-4.463 2.802-8.45 6.94-10.125zm103.55-.78a10.94 10.94 0 1 1-10.939 10.939 10.95 10.95 0 0 1 10.939-10.939z"/><circle cx="318.087" cy="946.416" r="10.939"/></g><path d="M342.4 687.095h20a4.39 4.39 0 0 1 4.39 4.39V834.5a4.39 4.39 0 0 1-4.39 4.39h-20a4.39 4.39 0 0 1-4.39-4.39V691.485a4.39 4.39 0 0 1 4.39-4.39z" class="B"/><path d="M342.4 838.9h20a4.39 4.39 0 0 0 4.39-4.39v19.223c.005.348-.043.694-.142 1.027h.142v20a4.39 4.39 0 0 1-4.39 4.39h-20a4.39 4.39 0 0 1-4.39-4.39v-20h.142a4.79 4.79 0 0 1-.142-1.027V834.5c-.006 1.166.454 2.286 1.28 3.11s1.945 1.285 3.11 1.28z" class="C"/><path d="M172.514 562.444h35.402v147.308h-35.402z" class="F"/><path d="M172.55 575.153h35.367v8.532H172.55zm0 17.56h35.367v8.532H172.55z" class="H"/><path d="M172.373 592.748h-47.33c-.03-.004-.06.006-.08.027s-.03.05-.027.08v116.792c-.004.03.006.06.027.08s.05.03.08.027h47.333c.03.004.06-.006.08-.027s.03-.05.027-.08V592.82c-.004-.036-.04-.07-.1-.07z" class="K M"/><path d="M132.014 600.218h33.42v32.712h-33.42zm-.354 39.012h33.42v62.733h-33.42z" class="L"/><path d="M108.153 561.913h17.1v147.804h-17.1z" class="C"/><path d="M113.747 570.8h6.514v57.67h-6.514z" class="J"/><path d="M91.054 561.913h17.1v147.804h-17.1z" class="I"/><path d="M96.683 570.8h6.514v57.67h-6.514z" class="D"/><path d="M74.06 561.913h17.1v147.804h-17.1z" class="H"/><path d="M79.7 570.8h6.514v57.67H79.7z" class="L"/><path d="M113.747 648.223h6.514v52.997h-6.514z" class="J"/><path d="M96.683 648.223h6.514v52.997h-6.514z" class="D"/><path d="M79.7 648.223h6.514v52.997H79.7z" class="L"/><path d="M736.046 629.177h162.46v81.248h-162.46z" class="I"/><path d="M810.178 668.367l-56.82.07c-.795 0-1.556.32-2.115.884s-.868 1.33-.86 2.125l.035 25.42a3 3 0 0 0 3.009 2.974l56.82-.07c.796.005 1.56-.31 2.12-.878s.867-1.335.853-2.13l-.035-25.42a3 3 0 0 0-3.008-2.974z" class="F M"/><path d="M842.925 696.158h46.6v3.54h-46.6zm0-6.443h46.6v3.54h-46.6z" class="D"/><path d="M522.003 540.424v43.792c.006.143-.006.285-.035.425h-46.305v-44.217z" class="I"/><path d="M496.16 546.797a2.69 2.69 0 1 0 5.382 0 2.69 2.69 0 0 0-2.691-2.691c-1.476.024-2.667 1.215-2.69 2.69z" class="B"/><g class="D"><use xlink:href="#H"/><use xlink:href="#H" y="-6.47"/><use xlink:href="#H" y="6.594"/><path d="M498.85 573.844h14.834v2.62H498.85z"/></g><path d="M150.247 652.755h45.456v43.686a13.3 13.3 0 0 1-13.311 13.311h-18.834a13.3 13.3 0 0 1-13.311-13.311v-43.686z" class="C"/><path d="M148.618 660.933h1.628v6.8h-2.655a4.11 4.11 0 0 0-4.107 4.107v14.9a4.11 4.11 0 0 0 4.107 4.107h2.655v5.664c0 .39.07.743.106 1.133h-1.77a10.91 10.91 0 0 1-10.9-10.9v-14.9c.028-6.024 4.912-10.897 10.936-10.91z" class="G"/><path d="M237.902 0h5.063v307.927h-5.063z" class="C"/><path d="M164.726 379.58c.15-41.304 33.677-74.708 74.98-74.708s74.83 33.404 74.982 74.708z" class="F"/><path d="M239.707 304.847a78.1 78.1 0 0 1 9.134.6c-37.498 4.58-65.724 36.355-65.848 74.132H164.76c.11-41.31 33.635-74.74 74.946-74.732z" class="I"/><path d="M258.01 379.58a18.48 18.48 0 0 1-36.606 0z" class="B"/><path d="M749.888 0h5.063v307.927h-5.063z" class="C"/><path d="M676.712 379.58c0-41.41 33.57-74.982 74.982-74.982s74.982 33.57 74.982 74.982z" class="F"/><path d="M751.693 304.847a78.1 78.1 0 0 1 9.134.6c-37.498 4.58-65.724 36.355-65.848 74.132h-18.232c.098-41.316 33.63-74.752 74.946-74.732z" class="I"/><path d="M769.997 379.58a18.48 18.48 0 0 1-36.606 0z" class="B"/></svg>