<svg xmlns="http://www.w3.org/2000/svg" width="35.399" height="35.399" fill="#ccc" xmlns:v="https://vecta.io/nano"><path d="M25.817 0H9.582C4.293.007.007 4.293.001 9.582v16.235c.006 5.3 4.292 9.576 9.58 9.583h16.235c5.3-.005 9.578-4.292 9.584-9.583V9.582C35.395 4.292 31.107.005 25.817 0zM17.7 27.38a9.68 9.68 0 1 1 9.679-9.68 9.69 9.69 0 0 1-9.678 9.679zm9.9-17.08a2.86 2.86 0 1 1 2.86-2.86c-.002 1.58-1.28 2.858-2.86 2.86zm-9.9-.204a7.6 7.6 0 1 0 7.6 7.6c-.007-4.194-3.406-7.593-7.6-7.6zm9.9-3.44c-.434 0-.785.35-.785.785s.35.785.785.785.785-.35.785-.785-.352-.784-.785-.785zm0 0"/></svg>