<svg xmlns="http://www.w3.org/2000/svg" width="142.691" height="84.901" xmlns:v="https://vecta.io/nano"><g fill="#ccc"><path d="M41.21 82.4h92.32c1.962.044 3.84-.804 5.103-2.307s1.777-3.497 1.397-5.422l-6.072-27.955a6.59 6.59 0 0 0-6.5-5.1H35.14c-1.963-.045-3.84.803-5.103 2.306s-1.777 3.497-1.397 5.423l6.07 27.954a6.59 6.59 0 0 0 6.497 5.101z" stroke="#ccc" stroke-miterlimit="10" stroke-width="5"/><path d="M.44 28.3L0 14.322q0-1.448.042-3.274.042-1.826.1-3.3Q.206 6.28.258 4.4.3 2.54.3 1A.53.53 0 0 1 .594.473 1.49 1.49 0 0 1 1.307.4c.327.025.656.004.977-.063H17.32c.864.001 1.724.1 2.56.325a9.46 9.46 0 0 1 2.51 1.05 9.16 9.16 0 0 1 2.163 1.763 8.02 8.02 0 0 1 1.512 2.595 9.73 9.73 0 0 1 .577 3.422c.03 1.532-.332 3.046-1.05 4.4-.803 1.4-1.873 2.632-3.15 3.622-1.94.953-4.057 1.482-6.216 1.554h-.673a8.61 8.61 0 0 1-1.68.168h-1.68c-.072-.002-.144.013-.2.043q0 5.5.172 8.315c-.047.252-.216.465-.45.567a3.35 3.35 0 0 1-1.188.147zm10.5-16.044v.38a2.23 2.23 0 0 0 .284.136c.172.078.263.13.263.157v.042c-.028 0-.042-.028-.042-.087.027.03.112.043.252.043a5.66 5.66 0 0 0 3.159-.841 2.88 2.88 0 0 0 1.292-2.6 3.15 3.15 0 0 0-.273-1.365 2.4 2.4 0 0 0-.662-.871 2.7 2.7 0 0 0-1.05-.462c-.394-.097-.796-.164-1.2-.2l-1.387-.042c-.013.015-.068.062-.167.146l-.2.2v2.185a26.75 26.75 0 0 0-.261 3.189zM35.092 23.94a10.54 10.54 0 0 0-.283 1.27l-.253 1.24a3.94 3.94 0 0 1-.388.945 1.62 1.62 0 0 1-.83.725 3.71 3.71 0 0 1-1.438.23h-9.07v-.714Q23.942 24.3 26.074 17.4q2.132-6.9 3.307-10.458v.042q.713-2.036 2.1-6.384a.8.8 0 0 1 .063-.1A2.51 2.51 0 0 1 31.9.007L43.24.1q2.9 0 3.2.5v.546a5.83 5.83 0 0 0 .464.966q2.035 6.235 2.98 9.07v.253a6.59 6.59 0 0 0 .38 1.387q.294.775.7 1.668a15.1 15.1 0 0 1 .576 1.4l.84 3.026q.734 2.435 2.162 6.5v.378a3.71 3.71 0 0 0 .314.8 5.6 5.6 0 0 1 .316.713c0 .394-.08.645-.242.756-.3.14-.614.2-.936.17h-9.738l-.46-.064a3.25 3.25 0 0 1-.326-.086c-.12-.027-.228-.087-.315-.172a.48.48 0 0 1-.115-.271l-.8-3.194c-.058-.266-.114-.415-.172-.45a1.36 1.36 0 0 0-.5-.052zm5.63-10q-.127-.587-.368-1.9-.24-1.313-.474-2.3-.23-.976-.5-1.817V6.928c-.1-.282-.313-.5-.588-.63v.04q-.5.108-1 2.814v1.008c-.035.107-.1.202-.188.273-.1.087-.148.133-.148.146q-.7 3.068-1.133 4.956a4.56 4.56 0 0 1-.1.735 5.39 5.39 0 0 0-.106.61h5.207c-.054-.67-.18-1.332-.377-1.975v-.46a2.03 2.03 0 0 0-.116-.241.64.64 0 0 1-.1-.26zM84.96.253c.17.056.3.3.4.725.1.53.153 1.066.155 1.605q.02.968 0 1.848l-.053 1.806-.03 1.155q-.042.842-.043 2.352v2.226q0 1.47.043 4.03.043 2.56.04 3.78v7.644q-.085.716-1.175.715h-11.76q-.378-.087-.966-1.763-.4-1.114-1.333-3.654-.933-2.54-1.607-4.463-.672-1.923-1.218-3.73h0q-.062 1.4-.125 4.13-.063 2.74-.126 4.1v4.283c.024.298-.027.598-.147.872a1.23 1.23 0 0 1-.774.389h-8.654l-.924-.922q.1-3.487.167-10.92.067-7.433.172-11V.925q.2-.756.5-.756v.086q1.428 0 4.484-.086 3.056-.086 4.587-.084H70.1c.022.002.044.01.063.02.253.1.392.2.42.336l.02.147q.756 2.036 1.533 4.22.777 2.184 1.848 5.28 1.07 3.1 1.5 4.274v-3.107q.42-7.393.42-10.5 0-.335.46-.42a8.53 8.53 0 0 1 1.429-.084zm29.3 8.347a8.03 8.03 0 0 0-2.716-.48 10.59 10.59 0 0 0-4.348.9l-.4-.4a2.62 2.62 0 0 0-3.687-.021.1.1 0 0 0-.021.021l-.2.2a2.62 2.62 0 0 0-.076 3.63 23.61 23.61 0 0 0-3.862 7.066q-.4 1.065-.68 2.15a22.31 22.31 0 0 0-.773 6.55H87.465V.335a2.07 2.07 0 0 1 .233.021 2.2 2.2 0 0 0 .229.02q.9 0 2.742-.187Q92.5.002 93.43.001h5.374c1.734-.014 3.466.1 5.18.376 1.523.25 3.005.702 4.408 1.345a10.67 10.67 0 0 1 3.518 2.52 11.29 11.29 0 0 1 2.236 4.032l.106.325zm27.323 17.987a3.75 3.75 0 0 1-.313-.8v-.376q-1.428-4.074-2.163-6.5l-.84-3.025a14.45 14.45 0 0 0-.577-1.4l-.7-1.668a6.41 6.41 0 0 1-.378-1.385v-.255q-.95-2.834-2.98-9.07a6.1 6.1 0 0 1-.464-.967V.587q-.294-.505-3.2-.5l-11.34-.086a2.44 2.44 0 0 0-.356.483.62.62 0 0 0-.063.105q-1.386 4.346-2.1 6.383V6.93l-.476 1.454c1.045-.8 2.514-.7 3.44.237l.2.2c1 1 1.027 2.613.06 3.647 2.448 3.3 3.687 7.36 3.513 11.473h.445l2.4-3.007a3.39 3.39 0 0 1 4.76-.538l.125.1c.703.56 1.155 1.374 1.256 2.267a3.42 3.42 0 0 1-.717 2.5l-1.5 1.864.13.518a.47.47 0 0 0 .113.271.69.69 0 0 0 .316.173l.326.085c.068.017.223.035.462.063h9.74a1.8 1.8 0 0 0 .937-.167c.16-.112.242-.365.242-.757a4.95 4.95 0 0 0-.321-.716zm-18.75-9.7a6.01 6.01 0 0 1 .1-.61c.057-.242.092-.488.105-.736q.44-1.888 1.133-4.954c0-.014.05-.062.147-.146a.58.58 0 0 0 .19-.274V9.16q.5-2.7 1.008-2.814v-.042a1.08 1.08 0 0 1 .588.63v1.008c.182.562.348 1.166.5 1.815s.313 1.413.474 2.3l.367 1.9a.67.67 0 0 0 .092.263 1.77 1.77 0 0 1 .116.24v.462a9.33 9.33 0 0 1 .378 1.975zm-9.645 5.71a1.69 1.69 0 0 1 2.477 0l.6.768c.55.72-.138 1.617-1.24 1.617h-1.177c-1.1 0-1.8-.9-1.238-1.617l.295-.384zm-6.583.096l1 .76a1.75 1.75 0 0 0 2.673-.7l1.16-2.7c.367-.85.115-1.842-.613-2.415l-.2-.16a2.04 2.04 0 0 0-2.685.135l-1.548 1.5a2.37 2.37 0 0 0-.72 1.842c.04.7.382 1.326.933 1.743zm12.377.172l.895-.783a2.72 2.72 0 0 0 .385-3.684l-.448-.6c-.3-.385-.727-.628-1.206-.67s-.953.12-1.305.448l-.2.2a2.22 2.22 0 0 0-.618 2.245l.674 2.32a1.13 1.13 0 0 0 .765.77c.37.1.77.02 1.06-.233z"/></g><path d="M48.443 62.198q.375-1.534.7-3.466.325-1.932.538-3.44.205-1.5.5-3.707.286-2.196.475-3.476H62.74l.14 1.08.137 1.1.273 2.236.125 1.124.136 1.112.148 1.093.138 1.072.9 5.942 1.7-14.45a.4.4 0 0 1 .156-.21c.1-.066.2-.112.325-.136l.4-.086a3.89 3.89 0 0 1 .516-.042l.516-.01h1.032l3.866.084.44-.02.566-.023c.314-.04.633.004.926.125.07 0 .192-.006.366-.02l.388-.02a2.21 2.21 0 0 1 .326.021c.1.016.194.048.283.094a1.21 1.21 0 0 1 .26.18 1 1 0 0 1 .208.293 1.52 1.52 0 0 1 .137.463l-6.1 26.795H58.75L56.42 62.43l-1.45 11.13-.116.688-.147.774-.176.567a1.08 1.08 0 0 1-.316.5.74.74 0 0 1-.462.147c-.518 0-1.285-.022-2.3-.063l-2.3-.063q-1.343 0-3.526.063-2.183.063-3.192.063h-.673l-5.586-26.1.128-1.5v-.322c.004-.042.01-.085.02-.126.008-.05.03-.098.063-.137a1.48 1.48 0 0 1 .127-.1c.064-.046.135-.082.2-.105a6.88 6.88 0 0 0 .882.087h1.386q.42 0 .42-.087h.713c.06 0 .162-.007.307-.02l.4-.02h.6l1.343-.042h1.388v.084h1.385c.35-.02.7.048 1.018.2.258.185.4.493.37.8zm30.89-12.324a5.4 5.4 0 0 1 .1-1.47.67.67 0 0 1 .608-.294h.507c.155-.008.3.006.462.042h1.1q2.12 0 6.415-.106 4.295-.106 6.438-.1h5.587q.543.062.543.545v7.015a.65.65 0 0 1-.07.219.59.59 0 0 1-.089.126 1.87 1.87 0 0 1-.2.146c-.08.054-.158.113-.23.18h-9.743v2.6h.924q1.22 0 3.715-.085 2.496-.085 3.847-.087c.287-.033.575.05.8.23a.95.95 0 0 1 .209.651c-.007.12-.02.24-.042.357a2.21 2.21 0 0 0-.045.356v.8a5.62 5.62 0 0 0 .025.345l.02.45v.588l.042.924.042.8v.546c-.046.118-.105.23-.176.336-.05.062-.13.094-.2.087v-.042q-.772 0-2.675.105-1.903.105-3.035.1h-3.358v2.7l1 .042q.946 0 2.795-.063l2.662-.062h2.7a2.42 2.42 0 0 1 1.386.252c.067.077.125.162.173.252v6.72c.015.237-.045.472-.173.672a.78.78 0 0 1-.631.251h-20.8l-.628-.545zm46.87 11.42c.714 0 1.408.236 1.974.67.602.45 1.097 1.03 1.45 1.693a10.34 10.34 0 0 1 .851 2.12 7.78 7.78 0 0 1 .3 2.065 7.85 7.85 0 0 1-1.46 4.46 7.57 7.57 0 0 1-3.665 2.72l-1.765 1.05h-19.817v-28.22h15.96c2.656-.142 5.3.564 7.518 2.016a4.97 4.97 0 0 1 1.848 2.3 8.25 8.25 0 0 1 .632 3.193 5.76 5.76 0 0 1-.937 3.44 9.68 9.68 0 0 1-2.887 2.482zm-10.877 2.687l-.843 5.23c0 .055.1.123.295.2.16.068.33.12.5.158h1.637a4.38 4.38 0 0 0 2.194-.681 2.18 2.18 0 0 0 .83-1.922 3.59 3.59 0 0 0-.1-.882c-.06-.24-.147-.473-.26-.693a1.82 1.82 0 0 0-.43-.526 4.84 4.84 0 0 0-.515-.378 2.33 2.33 0 0 0-.643-.24l-.662-.147a5.76 5.76 0 0 0-.691-.085l-.66-.033zm-.422-9.24a12.4 12.4 0 0 1 .168 2.184v.42c-.001.07-.008.14-.02.2a1.69 1.69 0 0 0-.021.209 6.12 6.12 0 0 0 .02.368l.02.473v.673c-.017.126.055.247.174.293l.86-.02.912-.084a2.89 2.89 0 0 0 .979-.252 4.91 4.91 0 0 0 .773-.5 1.82 1.82 0 0 0 .6-.828 3.48 3.48 0 0 0 .2-1.218 2 2 0 0 0-.632-1.533 3.02 3.02 0 0 0-1.427-.766 8.31 8.31 0 0 0-1.806-.179c-.15.04-.307.055-.462.043v-.043a.52.52 0 0 0-.342.55z" fill="#fff"/></svg>