<svg xmlns="http://www.w3.org/2000/svg" xmlns:xlink="http://www.w3.org/1999/xlink" width="142.07" height="121.778" xmlns:v="https://vecta.io/nano"><g fill="#ccc"><g fill-rule="evenodd"><path d="M107.342 30.276l-1.923 6.753c1.106-9.366-5.954-23.262-12.363-26.72 15.867 13.6 9.57 45.154-13.617 45.154-11.228 0-21.248-10.346-19.814-25.072C63.37 40.37 70.5 44.305 76.998 44c18.688-.852 17.793-29.238-.484-31a20.61 20.61 0 0 0-16.272 5.861c-13.5 13.548-8.313 47.96.043 62.987a50.17 50.17 0 0 1-1.514-9.195 11.48 11.48 0 0 1 .037-1.388c12.318 4.248 25.963 1.7 35.916-6.7a36.99 36.99 0 0 0 12.618-34.3zM75.475 4c6.87.563 11.972 2.3 15.775 4.923-3.013-4.06-21.74-15.384-39.97-3.96-13.8 8.62-20.343 25.226-16.16 40.94.45-1.8 1.024-3.564 1.718-5.284-.127 5.843.313 13.2 3.3 26.062.03-24.544 2.94-62.215 35.336-62.68zm28.255 94.426l-6.644.01V93.02c0-.023-.01-.045-.025-.06s-.04-.025-.062-.025h-1.012a1.14 1.14 0 0 0-1.02 1.2v5.03c0 1.337-1.28 3.138-2.8 3.138a1.14 1.14 0 0 0-1 1.228v.878c-.003.024.005.048.022.064a.08.08 0 0 0 .065.022h.57a4.8 4.8 0 0 0 3.345-1.375 5.42 5.42 0 0 0 1.608-2.493h.974l6.93-.01c.024.003.048-.005.065-.022s.025-.04.022-.064V99.4a.96.96 0 0 0-1.041-.987z"/><use xlink:href="#B"/><path d="M89.215 92.657a3.98 3.98 0 0 1 3.996 3.96 3.98 3.98 0 0 1-3.959 3.996H85.5q-1.563 0-1.564 1.3v2.494c.003.024-.005.048-.022.064a.08.08 0 0 1-.065.022h-1.04q-1.086-.118-1.086-1.074v-2.28a2.94 2.94 0 0 1 2.991-2.71h.9a3.94 3.94 0 0 1-.426-1.786 4 4 0 0 1 4.01-3.98zm0 2.193a1.792 1.792 0 1 0 0 3.584 1.79 1.79 0 0 0 1.792-1.792 1.79 1.79 0 0 0-1.798-1.785zm45.033-4.308l3.688-1.292c-.125-.407-.27-.943-.8-.758l-3.658 1.312c.108.386.288.9.76.738z"/><path d="M136.037 92.763l6.033-2.22c-.177-1.237-.6-2.138-1.892-1.668l-5.8 2.1c-.783.283-1.6.97-.9 1.78l3.224 3.8c.54.636.825 1.746-.34 1.9l-5.166.01V93.02a.08.08 0 0 0-.024-.063c-.017-.017-.04-.025-.063-.023h-1.1c-.605.065-1.054.592-1.02 1.2v5.03c0 1.537-1.2 3.178-2.706 3.178a1.06 1.06 0 0 0-1 1.145v.92c-.003.024.005.048.022.064a.08.08 0 0 0 .065.022h.57a4.8 4.8 0 0 0 3.344-1.376c.758-.665 1.315-1.528 1.608-2.493l5.514-.01c2.233 0 3.848-3 1.9-5.254zm-24.66-.106c1.62 0 3.08.976 3.7 2.473a4.01 4.01 0 0 1-.868 4.366c-1.145 1.146-2.87 1.488-4.366.868s-2.473-2.08-2.473-3.7a4.01 4.01 0 0 1 4.006-4.006zm0 2.214a1.792 1.792 0 1 0 0 3.584 1.79 1.79 0 1 0 0-3.588zm9.754-2.208a4 4 0 0 1 4.01 3.941 14.65 14.65 0 0 1-.24 3.68c-.632 2.257-2.632 3.86-4.972 3.988h-3.56c-.024.004-.048-.004-.065-.02s-.025-.04-.022-.065v-.963a1.07 1.07 0 0 1 .263-.78c.188-.215.453-.346.737-.365h.956c2.136 0 3.526-.573 4.17-1.633.006-.012-1.046.173-1.274.173a3.98 3.98 0 0 1-3.978-3.979 3.98 3.98 0 0 1 3.978-3.978zm0 2.192a1.792 1.792 0 1 0 0 3.584 1.79 1.79 0 1 0 0-3.584zm-86.618 3.578H26.38l-.26-.043a1.19 1.19 0 0 1-.825-1.289v-8.5c0-.05-.03-.08-.087-.086H24.17q-.966 0-1.086 1.074v8.424c.02.462.17.9.434 1.3a2.73 2.73 0 0 0 2.259 1.333h9.778c.024.003.048-.005.065-.022s.025-.04.022-.064v-.686q0-1.42-1.132-1.42z"/><use xlink:href="#B" x="-73.558" y="6.753"/><use xlink:href="#B" x="-93.934" y="0.003"/><use xlink:href="#B" x="-69.974" y="6.753"/><use xlink:href="#B" x="-90.352" y="0.003"/><use xlink:href="#B" x="-66.392" y="6.753"/><path d="M21.342 99.154V93.02c.001-.023-.008-.046-.025-.062s-.04-.025-.062-.024h-1.1a1.14 1.14 0 0 0-1.02 1.2v5.03c0 1.337-1.2 3.095-2.706 3.095a1.14 1.14 0 0 0-1 1.228v.92c-.003.024.005.048.022.064a.08.08 0 0 0 .065.022h.57a5.06 5.06 0 0 0 5.258-5.344zm-3.954-2.13v-1.72c0-.023-.01-.045-.025-.06s-.04-.025-.062-.025h-1.194a1.14 1.14 0 0 0-1.02 1.205v.677a1.19 1.19 0 0 1-.825 1.289l-.26.043H1.13q-1.13 0-1.13 1.42v.688c-.003.024.005.048.022.064a.08.08 0 0 0 .065.022h14.608a2.73 2.73 0 0 0 2.258-1.333c.263-.38.414-.827.434-1.3zm42.234 3.593h1.124a1.06 1.06 0 0 0 .75-.372 1.07 1.07 0 0 0 .25-.8V88.54c0-.05-.03-.08-.087-.086h-1.037q-.967 0-1.086 1.074v11c-.003.023.004.047.02.064s.04.025.063.022zm17.384 0h1.124a1.06 1.06 0 0 0 .75-.372 1.07 1.07 0 0 0 .25-.8V88.54q0-.075-.087-.086h-1.037q-.966 0-1.086 1.074v11c-.003.023.005.046.02.063s.04.025.063.023zm-30.793-4.522s0-1.1 1.656-1.014h4.126c.024.004.048-.004.065-.02s.025-.04.022-.065v-1.12a1.06 1.06 0 0 0-1.094-.989h-3.293c-1.9 0-3.692 1.826-3.692 3.122v1.023q.177 1.247 1.043 1.247c2.174 0 4.083-.236 4.083 1.5 0 2.265-2.763 2.537-4.48 2.537-2.385 0-4.12-.5-4.12-3.293v-5.322c0-.05-.03-.08-.087-.086h-1.086a.94.94 0 0 0-1.043.988v4.418a5.18 5.18 0 0 0 1.322 3.748c.922 1.025 2.2 1.64 3.586 1.7h2.9c3.07 0 5.207-1.75 5.207-5.262 0-2.76-2.8-3.128-5.125-3.128z"/><use xlink:href="#B" x="-35.78" y="-5.497"/><use xlink:href="#B" x="-29.227" y="-5.775"/><path d="M71.1 100.626h-5.714c-.293.965-.85 1.828-1.606 2.494a4.8 4.8 0 0 1-3.345 1.375h-.57c-.024.004-.048-.004-.065-.02s-.025-.04-.022-.065v-.878c-.01-.63.463-1.165 1.1-1.228 1.515 0 2.613-1.8 2.613-3.138v-5.03c0-.564.3-1.2.928-1.2h1.195c.047.002.084.04.087.086v5.418h1.878a3.95 3.95 0 0 1-.412-1.771 4.01 4.01 0 0 1 2.446-3.733c1.496-.633 3.228-.3 4.382.846a4.01 4.01 0 0 1 .88 4.375c-.62 1.502-2.088 2.48-3.714 2.475zm.06-5.754a1.792 1.792 0 1 0 0 3.584 1.79 1.79 0 1 0 0-3.584zm-13.375 4.282V93.02a.08.08 0 0 0-.087-.086h-1.1c-.605.065-1.054.592-1.02 1.2v5.03c0 1.337-1.178 3.137-2.694 3.137a1.14 1.14 0 0 0-1 1.228l-.01.88c-.003.024.005.048.022.065a.07.07 0 0 0 .065.02h.57A5.06 5.06 0 0 0 57.8 99.15z"/></g><path d="M136.22 121.774v-5.832c-.092-.643.124-1.29.584-1.75s1.108-.675 1.75-.584h.583c.643-.092 1.29.124 1.75.584s.675 1.108.584 1.75v1.167c.092.643-.124 1.29-.584 1.75s-1.108.675-1.75.584h-1.752v2.33zm1.165-5.832v2.332h1.75a1.03 1.03 0 0 0 1.168-1.167v-1.165a1.03 1.03 0 0 0-1.166-1.168h-.583a1.03 1.03 0 0 0-1.169 1.168zm-7.044 3.5c-.643.092-1.29-.124-1.75-.584s-.675-1.108-.584-1.75v-3.5h1.168v3.5a1.03 1.03 0 0 0 1.169 1.166h.583a1.03 1.03 0 0 0 1.168-1.167v-3.5h1.167v3.5c.092.643-.124 1.29-.584 1.75s-1.108.675-1.75.584zm-8.247 0c-.643.092-1.29-.124-1.75-.584s-.675-1.108-.584-1.75v-1.166c-.09-.643.125-1.29.584-1.75s1.107-.675 1.75-.584h.583c.643-.092 1.29.124 1.75.584s.675 1.108.584 1.75v1.167c.092.643-.124 1.29-.584 1.75s-1.108.675-1.75.584zm-1.166-3.5v1.167a1.03 1.03 0 0 0 1.17 1.165h.583a1.03 1.03 0 0 0 1.168-1.167v-1.165a1.03 1.03 0 0 0-1.164-1.168h-.583a1.03 1.03 0 0 0-1.168 1.167zm-7.443 3.502v-3.5c-.09-.643.125-1.29.584-1.75s1.107-.675 1.75-.584h1.75v1.164h-1.75a1.03 1.03 0 0 0-1.167 1.167v3.5zm-6.338 0q-2.918 0-2.917-2.334v-3.5q-.002-2.336 2.917-2.336h.584q2.918 0 2.918 2.334h-1.17q0-1.166-1.75-1.167h-.582q-1.75 0-1.75 1.167v3.5q0 1.166 1.75 1.166h.584q1.754 0 1.754-1.165v-1.167h-2.334v-1.168h3.5v2.335q0 2.334-2.918 2.334zm-13.55 0c-.643.09-1.29-.125-1.75-.584s-.675-1.107-.584-1.75v-1.168c-.09-.643.125-1.29.584-1.75s1.107-.675 1.75-.584h.584q2.334 0 2.334 1.75 0 1.75-2.336 1.75h-1.75a1.03 1.03 0 0 0 1.167 1.165h2.334v1.17zm-1.167-3.5h1.75q1.167 0 1.167-.584 0-.584-1.17-.586h-.584a1.03 1.03 0 0 0-1.168 1.167zm-7.444 3.5v-3.5c-.092-.643.124-1.29.584-1.75s1.108-.675 1.75-.584h1.748v1.164H87.31a1.03 1.03 0 0 0-1.168 1.167v3.5zm-5.912 0q-2.334 0-2.334-1.75 0-1.75 2.334-1.75h1.742a1.03 1.03 0 0 0-1.166-1.168h-2.335v-1.166h2.334c.643-.093 1.293.123 1.753.582s.676 1.11.584 1.753v1.166c.092.643-.124 1.293-.584 1.752s-1.11.675-1.752.583zm-1.173-1.75q0 .583 1.168.584h.583a1.03 1.03 0 0 0 1.164-1.17h-1.75q-1.165 0-1.165.586zm-7.85 1.167c-.48.423-1.112.633-1.75.584-.643.09-1.29-.125-1.75-.584s-.675-1.107-.584-1.75v-3.5h1.167v3.5c0 .645.522 1.167 1.167 1.167s1.167-.522 1.167-1.167v-3.5h1.167v3.5c0 .645.522 1.167 1.167 1.167s1.167-.522 1.167-1.167v-3.5h1.167v3.5c.09.642-.125 1.3-.584 1.75s-1.107.675-1.75.583c-.638.05-1.27-.162-1.75-.584zm-7.925.584c-.643.09-1.29-.125-1.75-.584s-.675-1.107-.584-1.75v-2.338h-.583v-1.166h.583v-2.334h1.167v2.334h2.334v1.166h-2.335v2.335a1.03 1.03 0 0 0 1.167 1.165h1.167v1.17zm-8.895 0v-4.087h-.584v-1.167h.584v-.584c-.09-.643.125-1.29.584-1.75s1.108-.675 1.75-.584h1.168v1.167h-1.168a1.03 1.03 0 0 0-1.167 1.167v.584h2.334v1.167h-2.334v4.085zm-6.03 0c-.643.09-1.29-.125-1.75-.584s-.675-1.107-.584-1.75v-1.17c-.09-.643.125-1.29.584-1.75s1.107-.675 1.75-.584h.583c.643-.09 1.29.125 1.75.584s.675 1.107.584 1.75v1.167c.092.643-.124 1.292-.583 1.75s-1.108.676-1.75.584zm-1.166-3.5v1.163a1.03 1.03 0 0 0 1.167 1.165h.582a1.03 1.03 0 0 0 1.167-1.167v-1.165a1.03 1.03 0 0 0-1.167-1.168H47.2a1.03 1.03 0 0 0-1.167 1.167zm-7.363 3.5q-2.918 0-2.918-2.334h1.168q0 1.162 1.75 1.162h.584q1.75 0 1.75-1.167 0-.875-2.626-1.313-2.626-.438-2.63-2.188 0-2.332 2.92-2.332h.584q2.918 0 2.918 2.334h-1.168q0-1.166-1.75-1.167h-.584q-1.75 0-1.75 1.167 0 .875 2.625 1.313 2.625.438 2.628 2.188 0 2.334-2.918 2.334zm-11.8 0c-.643.092-1.29-.124-1.75-.584s-.675-1.108-.584-1.75v-2.338h-.584v-1.166h.584v-2.334h1.165v2.334h2.33v1.166h-2.332v2.335a1.03 1.03 0 0 0 1.167 1.165h1.165v1.17zm-9.512 0v-3.5c-.09-.643.125-1.29.584-1.75s1.107-.675 1.75-.584h1.75v1.162H19.69a1.03 1.03 0 0 0-1.168 1.167v3.5zm-5.912 0q-2.334 0-2.334-1.75 0-1.75 2.334-1.75h1.75a1.03 1.03 0 0 0-1.169-1.17H9.694v-1.166h2.334c.643-.09 1.29.125 1.75.584s.675 1.107.584 1.75v1.167c.092.643-.124 1.292-.583 1.75s-1.108.676-1.75.584zm-1.17-1.75q0 .58 1.167.58h.584a1.03 1.03 0 0 0 1.167-1.167h-1.752q-1.167 0-1.166.583zm-9.694 1.75v-8.17h3.5q2.92 0 2.92 2.334 0 2.334-2.92 2.334H1.75v3.5zm1.167-4.67h2.333q1.75 0 1.75-1.167 0-1.167-1.75-1.166H1.75z"/></g><defs ><path id="B" d="M100.44 97.735c.872-.01 1.572-.722 1.566-1.594s-.717-1.575-1.59-1.572-1.577.71-1.577 1.583c0 .423.17.828.47 1.125s.708.462 1.13.458z"/></defs></svg>