<svg xmlns="http://www.w3.org/2000/svg" width="35.325" height="35.399" xmlns:v="https://vecta.io/nano"><path d="M34.4 25.98l-4.938-4.94c-.797-.82-1.964-1.168-3.08-.916s-2.02 1.067-2.388 2.15c-.583 1.577-2.24 2.48-3.88 2.117-3.53-.882-8.292-5.47-9.174-9.174a3.2 3.2 0 0 1 2.117-3.881c1.084-.367 1.898-1.272 2.15-2.388s-.095-2.283-.916-3.08L9.346.926C7.998-.3 5.93-.3 4.582.926L1.23 4.278c-3.352 3.53.353 12.88 8.645 21.172s17.643 12.174 21.172 8.65l3.352-3.352c1.238-1.348 1.238-3.42 0-4.768z" fill="#ccc"/></svg>