<svg xmlns="http://www.w3.org/2000/svg" width="35.399" height="35.399" xmlns:v="https://vecta.io/nano"><path d="M17.7 0C7.94.038.038 7.94 0 17.7a17.58 17.58 0 0 0 2.506 9.065L0 35.4l8.635-2.505A17.58 17.58 0 0 0 17.7 35.4c9.775 0 17.7-7.925 17.7-17.7S27.475 0 17.7 0zm11.066 25.178l-.824.822c-1.165 1.165-3.845 1.073-5.566.74-5.725-1.106-12.4-7.575-13.686-13.178-.637-2.775-.285-5.188.635-6.11l.823-.823c.455-.454 1.192-.454 1.647 0l3.294 3.295c.454.455.454 1.19 0 1.646l-.823.824c-.908.91-.908 2.384 0 3.295l5.44 5.37a2.33 2.33 0 0 0 3.295 0l.823-.823c.466-.43 1.182-.43 1.648 0l3.294 3.294c.22.218.342.515.342.824s-.123.606-.342.824zm0 0" fill="#ccc"/></svg>